<svg width="728" height="652" viewBox="0 0 728 652" fill="none" xmlns="http://www.w3.org/2000/svg">
<rect width="728" height="652" fill="#1E1E1E"/>
<rect width="32" height="32" fill="#84A0A1"/>
<path d="M22.9272 17.125C22.9272 16.8599 22.7791 16.7273 22.483 16.7273H13.3641C13.1406 16.7273 12.9017 16.8087 12.6475 16.9716C12.3932 17.1345 12.1935 17.3333 12.0482 17.5682L9.58407 21.6932C9.4835 21.875 9.43321 22.0265 9.43321 22.1477C9.43321 22.4129 9.58128 22.5455 9.87742 22.5455H18.9963C19.2198 22.5455 19.4601 22.4621 19.7171 22.2955C19.9742 22.1288 20.1725 21.928 20.3122 21.6932L22.7763 17.5682C22.8769 17.4015 22.9272 17.2538 22.9272 17.125L22.9272 17.125ZM13.3641 15.2727H19.8009V13.4545C19.8009 13.1515 19.7227 12.8939 19.5663 12.6818C19.4098 12.4697 19.2198 12.3636 18.9963 12.3636H14.1687C13.9452 12.3636 13.7552 12.2576 13.5987 12.0455C13.4423 11.8333 13.3641 11.5758 13.3641 11.2727V10.5455C13.3641 10.2424 13.2858 9.98485 13.1294 9.77273C12.9729 9.56061 12.783 9.45455 12.5595 9.45456H9.87742C9.65392 9.45456 9.46394 9.56062 9.30749 9.77274C9.15104 9.98486 9.07281 10.2424 9.07281 10.5455V20.2386L11.2184 16.6591C11.4643 16.2576 11.7884 15.9262 12.1907 15.6648C12.593 15.4034 12.9841 15.2727 13.3641 15.2727ZM24 17.125C24 17.5947 23.8715 18.0492 23.6145 18.4886L21.142 22.6136C20.9017 23.0152 20.5776 23.3466 20.1697 23.6079C19.7618 23.8693 19.3707 24 18.9963 24H9.87742C9.36337 24 8.92195 23.75 8.55317 23.25C8.18439 22.75 8 22.1515 8 21.4546V10.5455C8 9.84849 8.18439 9.25 8.55317 8.75C8.92195 8.25 9.36337 8 9.87742 8H12.5595C13.0735 8 13.5149 8.25 13.8837 8.75C14.2525 9.25 14.4369 9.84849 14.4369 10.5455V10.9091H18.9963C19.5104 10.9091 19.9518 11.1591 20.3206 11.6591C20.6894 12.1591 20.8738 12.7576 20.8738 13.4545V15.2727H22.483C22.7847 15.2727 23.0613 15.3655 23.3127 15.5511C23.5642 15.7367 23.7514 16.0038 23.8743 16.3523C23.9581 16.5947 24 16.8523 24 17.125Z" fill="#1B1B1B"/>
<path d="M7.136 26.232V29H6.772V26.936L5.852 29H5.596L4.672 26.932V29H4.308V26.232H4.7L5.724 28.52L6.748 26.232H7.136ZM9.64131 26.808L8.32131 30.032H7.94531L8.37731 28.976L7.49331 26.808H7.89731L8.58531 28.584L9.26531 26.808H9.64131ZM11.4376 27.212C11.5096 27.0867 11.6163 26.9827 11.7576 26.9C11.9016 26.8147 12.0683 26.772 12.2576 26.772C12.4523 26.772 12.6283 26.8187 12.7856 26.912C12.9456 27.0053 13.071 27.1373 13.1616 27.308C13.2523 27.476 13.2976 27.672 13.2976 27.896C13.2976 28.1173 13.2523 28.3147 13.1616 28.488C13.071 28.6613 12.9456 28.796 12.7856 28.892C12.6283 28.988 12.4523 29.036 12.2576 29.036C12.071 29.036 11.9056 28.9947 11.7616 28.912C11.6203 28.8267 11.5123 28.7213 11.4376 28.596V30.04H11.0736V26.808H11.4376V27.212ZM12.9256 27.896C12.9256 27.7307 12.8923 27.5867 12.8256 27.464C12.759 27.3413 12.6683 27.248 12.5536 27.184C12.4416 27.12 12.3176 27.088 12.1816 27.088C12.0483 27.088 11.9243 27.1213 11.8096 27.188C11.6976 27.252 11.607 27.3467 11.5376 27.472C11.471 27.5947 11.4376 27.7373 11.4376 27.9C11.4376 28.0653 11.471 28.2107 11.5376 28.336C11.607 28.4587 11.6976 28.5533 11.8096 28.62C11.9243 28.684 12.0483 28.716 12.1816 28.716C12.3176 28.716 12.4416 28.684 12.5536 28.62C12.6683 28.5533 12.759 28.4587 12.8256 28.336C12.8923 28.2107 12.9256 28.064 12.9256 27.896ZM14.7328 29.036C14.5274 29.036 14.3408 28.9893 14.1728 28.896C14.0074 28.8027 13.8768 28.6707 13.7808 28.5C13.6874 28.3267 13.6408 28.1267 13.6408 27.9C13.6408 27.676 13.6888 27.4787 13.7848 27.308C13.8834 27.1347 14.0168 27.0027 14.1848 26.912C14.3528 26.8187 14.5408 26.772 14.7488 26.772C14.9568 26.772 15.1448 26.8187 15.3128 26.912C15.4808 27.0027 15.6128 27.1333 15.7088 27.304C15.8074 27.4747 15.8568 27.6733 15.8568 27.9C15.8568 28.1267 15.8061 28.3267 15.7048 28.5C15.6061 28.6707 15.4714 28.8027 15.3008 28.896C15.1301 28.9893 14.9408 29.036 14.7328 29.036ZM14.7328 28.716C14.8634 28.716 14.9861 28.6853 15.1008 28.624C15.2154 28.5627 15.3074 28.4707 15.3768 28.348C15.4488 28.2253 15.4848 28.076 15.4848 27.9C15.4848 27.724 15.4501 27.5747 15.3808 27.452C15.3114 27.3293 15.2208 27.2387 15.1088 27.18C14.9968 27.1187 14.8754 27.088 14.7448 27.088C14.6114 27.088 14.4888 27.1187 14.3768 27.18C14.2674 27.2387 14.1794 27.3293 14.1128 27.452C14.0461 27.5747 14.0128 27.724 14.0128 27.9C14.0128 28.0787 14.0448 28.2293 14.1088 28.352C14.1754 28.4747 14.2634 28.5667 14.3728 28.628C14.4821 28.6867 14.6021 28.716 14.7328 28.716ZM16.6993 27.164C16.7633 27.0387 16.854 26.9413 16.9713 26.872C17.0913 26.8027 17.2367 26.768 17.4073 26.768V27.144H17.3113C16.9033 27.144 16.6993 27.3653 16.6993 27.808V29H16.3353V26.808H16.6993V27.164ZM18.2715 27.108V28.4C18.2715 28.5067 18.2942 28.5827 18.3395 28.628C18.3849 28.6707 18.4635 28.692 18.5755 28.692H18.8435V29H18.5155C18.3129 29 18.1609 28.9533 18.0595 28.86C17.9582 28.7667 17.9075 28.6133 17.9075 28.4V27.108H17.6235V26.808H17.9075V26.256H18.2715V26.808H18.8435V27.108H18.2715ZM20.1766 27.108H19.7166V29H19.3526V27.108H19.0686V26.808H19.3526V26.652C19.3526 26.4067 19.4152 26.228 19.5406 26.116C19.6686 26.0013 19.8726 25.944 20.1526 25.944V26.248C19.9926 26.248 19.8792 26.28 19.8126 26.344C19.7486 26.4053 19.7166 26.508 19.7166 26.652V26.808H20.1766V27.108ZM21.557 29.036C21.3516 29.036 21.165 28.9893 20.997 28.896C20.8316 28.8027 20.701 28.6707 20.605 28.5C20.5116 28.3267 20.465 28.1267 20.465 27.9C20.465 27.676 20.513 27.4787 20.609 27.308C20.7076 27.1347 20.841 27.0027 21.009 26.912C21.177 26.8187 21.365 26.772 21.573 26.772C21.781 26.772 21.969 26.8187 22.137 26.912C22.305 27.0027 22.437 27.1333 22.533 27.304C22.6316 27.4747 22.681 27.6733 22.681 27.9C22.681 28.1267 22.6303 28.3267 22.529 28.5C22.4303 28.6707 22.2956 28.8027 22.125 28.896C21.9543 28.9893 21.765 29.036 21.557 29.036ZM21.557 28.716C21.6876 28.716 21.8103 28.6853 21.925 28.624C22.0396 28.5627 22.1316 28.4707 22.201 28.348C22.273 28.2253 22.309 28.076 22.309 27.9C22.309 27.724 22.2743 27.5747 22.205 27.452C22.1356 27.3293 22.045 27.2387 21.933 27.18C21.821 27.1187 21.6996 27.088 21.569 27.088C21.4356 27.088 21.313 27.1187 21.201 27.18C21.0916 27.2387 21.0036 27.3293 20.937 27.452C20.8703 27.5747 20.837 27.724 20.837 27.9C20.837 28.0787 20.869 28.2293 20.933 28.352C20.9996 28.4747 21.0876 28.5667 21.197 28.628C21.3063 28.6867 21.4263 28.716 21.557 28.716ZM23.5236 26.04V29H23.1596V26.04H23.5236ZM24.3319 26.452C24.2626 26.452 24.2039 26.428 24.1559 26.38C24.1079 26.332 24.0839 26.2733 24.0839 26.204C24.0839 26.1347 24.1079 26.076 24.1559 26.028C24.2039 25.98 24.2626 25.956 24.3319 25.956C24.3986 25.956 24.4546 25.98 24.4999 26.028C24.5479 26.076 24.5719 26.1347 24.5719 26.204C24.5719 26.2733 24.5479 26.332 24.4999 26.38C24.4546 26.428 24.3986 26.452 24.3319 26.452ZM24.5079 26.808V29H24.1439V26.808H24.5079ZM26.0843 29.036C25.879 29.036 25.6923 28.9893 25.5243 28.896C25.359 28.8027 25.2283 28.6707 25.1323 28.5C25.039 28.3267 24.9923 28.1267 24.9923 27.9C24.9923 27.676 25.0403 27.4787 25.1363 27.308C25.235 27.1347 25.3683 27.0027 25.5363 26.912C25.7043 26.8187 25.8923 26.772 26.1003 26.772C26.3083 26.772 26.4963 26.8187 26.6643 26.912C26.8323 27.0027 26.9643 27.1333 27.0603 27.304C27.159 27.4747 27.2083 27.6733 27.2083 27.9C27.2083 28.1267 27.1576 28.3267 27.0563 28.5C26.9576 28.6707 26.823 28.8027 26.6523 28.896C26.4816 28.9893 26.2923 29.036 26.0843 29.036ZM26.0843 28.716C26.215 28.716 26.3376 28.6853 26.4523 28.624C26.567 28.5627 26.659 28.4707 26.7283 28.348C26.8003 28.2253 26.8363 28.076 26.8363 27.9C26.8363 27.724 26.8016 27.5747 26.7323 27.452C26.663 27.3293 26.5723 27.2387 26.4603 27.18C26.3483 27.1187 26.227 27.088 26.0963 27.088C25.963 27.088 25.8403 27.1187 25.7283 27.18C25.619 27.2387 25.531 27.3293 25.4643 27.452C25.3976 27.5747 25.3643 27.724 25.3643 27.9C25.3643 28.0787 25.3963 28.2293 25.4603 28.352C25.527 28.4747 25.615 28.5667 25.7243 28.628C25.8336 28.6867 25.9536 28.716 26.0843 28.716Z" fill="white"/>
</svg>
