<svg width="32" height="32" viewBox="0 0 32 32" fill="none" xmlns="http://www.w3.org/2000/svg">
<rect width="32" height="32" fill="#4C5D5B" fill-opacity="0.9"/>
<path d="M9.42743 8C9.42114 8 9.416 8.00331 9.40971 8.00331C9.03445 8.00852 8.67634 8.15594 8.41262 8.41376C8.14891 8.67158 8.00071 9.01916 8 9.38152C8 9.45468 8.0301 9.52485 8.08368 9.57658C8.13727 9.62832 8.20994 9.65738 8.28571 9.65738H10.2846V22.6207C10.2846 23.3815 10.9257 24 11.7131 24H22.5714C22.9158 23.9992 23.2483 23.878 23.5074 23.659C23.7665 23.4399 23.9348 23.1378 23.9811 22.8083C23.9932 22.7784 23.9996 22.7466 24 22.7145V21.5194C24 21.4463 23.9699 21.3761 23.9163 21.3244C23.8627 21.2726 23.7901 21.2436 23.7143 21.2436H22.2846V9.93103C22.2846 8.86621 21.3874 8 20.2846 8H9.42743ZM10.5623 8.55172H20.2846C21.072 8.55172 21.7131 9.17021 21.7131 9.93103V21.2436H12.8571C12.7814 21.2436 12.7087 21.2726 12.6551 21.3244C12.6015 21.3761 12.5714 21.4463 12.5714 21.5194V22.6207C12.5714 23.077 12.1869 23.4483 11.7143 23.4483C11.2417 23.4483 10.8571 23.077 10.8571 22.6207L10.856 22.6141V9.38814L10.8571 9.38152C10.8571 9.06924 10.7446 8.78345 10.5623 8.55172ZM9.42857 8.55393C9.80114 8.55393 10.1183 8.78455 10.2366 9.10566H8.62057C8.73886 8.78455 9.056 8.55393 9.42857 8.55393ZM13.1429 21.7953H23.4286V22.6207C23.4286 23.077 23.044 23.4483 22.5714 23.4483H12.8491C13.0309 23.2171 13.1429 22.9324 13.1429 22.6207V21.7953Z" fill="white"/>
<path d="M5.944 27.768C6.11467 27.768 6.26667 27.804 6.4 27.876C6.53333 27.9453 6.63867 28.0507 6.716 28.192C6.79333 28.3333 6.832 28.5053 6.832 28.708V30H6.472V28.76C6.472 28.5413 6.41733 28.3747 6.308 28.26C6.20133 28.1427 6.056 28.084 5.872 28.084C5.68267 28.084 5.532 28.1453 5.42 28.268C5.308 28.388 5.252 28.5627 5.252 28.792V30H4.892V28.76C4.892 28.5413 4.83733 28.3747 4.728 28.26C4.62133 28.1427 4.476 28.084 4.292 28.084C4.10267 28.084 3.952 28.1453 3.84 28.268C3.728 28.388 3.672 28.5627 3.672 28.792V30H3.308V27.808H3.672V28.124C3.744 28.0093 3.84 27.9213 3.96 27.86C4.08267 27.7987 4.21733 27.768 4.364 27.768C4.548 27.768 4.71067 27.8093 4.852 27.892C4.99333 27.9747 5.09867 28.096 5.168 28.256C5.22933 28.1013 5.33067 27.9813 5.472 27.896C5.61333 27.8107 5.77067 27.768 5.944 27.768ZM9.31709 27.808L7.99709 31.032H7.62109L8.05309 29.976L7.16909 27.808H7.57309L8.26109 29.584L8.94109 27.808H9.31709ZM11.1134 28.212C11.1854 28.0867 11.2921 27.9827 11.4334 27.9C11.5774 27.8147 11.7441 27.772 11.9334 27.772C12.1281 27.772 12.3041 27.8187 12.4614 27.912C12.6214 28.0053 12.7467 28.1373 12.8374 28.308C12.9281 28.476 12.9734 28.672 12.9734 28.896C12.9734 29.1173 12.9281 29.3147 12.8374 29.488C12.7467 29.6613 12.6214 29.796 12.4614 29.892C12.3041 29.988 12.1281 30.036 11.9334 30.036C11.7467 30.036 11.5814 29.9947 11.4374 29.912C11.2961 29.8267 11.1881 29.7213 11.1134 29.596V31.04H10.7494V27.808H11.1134V28.212ZM12.6014 28.896C12.6014 28.7307 12.5681 28.5867 12.5014 28.464C12.4347 28.3413 12.3441 28.248 12.2294 28.184C12.1174 28.12 11.9934 28.088 11.8574 28.088C11.7241 28.088 11.6001 28.1213 11.4854 28.188C11.3734 28.252 11.2827 28.3467 11.2134 28.472C11.1467 28.5947 11.1134 28.7373 11.1134 28.9C11.1134 29.0653 11.1467 29.2107 11.2134 29.336C11.2827 29.4587 11.3734 29.5533 11.4854 29.62C11.6001 29.684 11.7241 29.716 11.8574 29.716C11.9934 29.716 12.1174 29.684 12.2294 29.62C12.3441 29.5533 12.4347 29.4587 12.5014 29.336C12.5681 29.2107 12.6014 29.064 12.6014 28.896ZM14.4085 30.036C14.2032 30.036 14.0165 29.9893 13.8485 29.896C13.6832 29.8027 13.5525 29.6707 13.4565 29.5C13.3632 29.3267 13.3165 29.1267 13.3165 28.9C13.3165 28.676 13.3645 28.4787 13.4605 28.308C13.5592 28.1347 13.6925 28.0027 13.8605 27.912C14.0285 27.8187 14.2165 27.772 14.4245 27.772C14.6325 27.772 14.8205 27.8187 14.9885 27.912C15.1565 28.0027 15.2885 28.1333 15.3845 28.304C15.4832 28.4747 15.5325 28.6733 15.5325 28.9C15.5325 29.1267 15.4819 29.3267 15.3805 29.5C15.2819 29.6707 15.1472 29.8027 14.9765 29.896C14.8059 29.9893 14.6165 30.036 14.4085 30.036ZM14.4085 29.716C14.5392 29.716 14.6619 29.6853 14.7765 29.624C14.8912 29.5627 14.9832 29.4707 15.0525 29.348C15.1245 29.2253 15.1605 29.076 15.1605 28.9C15.1605 28.724 15.1259 28.5747 15.0565 28.452C14.9872 28.3293 14.8965 28.2387 14.7845 28.18C14.6725 28.1187 14.5512 28.088 14.4205 28.088C14.2872 28.088 14.1645 28.1187 14.0525 28.18C13.9432 28.2387 13.8552 28.3293 13.7885 28.452C13.7219 28.5747 13.6885 28.724 13.6885 28.9C13.6885 29.0787 13.7205 29.2293 13.7845 29.352C13.8512 29.4747 13.9392 29.5667 14.0485 29.628C14.1579 29.6867 14.2779 29.716 14.4085 29.716ZM16.3751 28.164C16.4391 28.0387 16.5298 27.9413 16.6471 27.872C16.7671 27.8027 16.9125 27.768 17.0831 27.768V28.144H16.9871C16.5791 28.144 16.3751 28.3653 16.3751 28.808V30H16.0111V27.808H16.3751V28.164ZM17.9473 28.108V29.4C17.9473 29.5067 17.97 29.5827 18.0153 29.628C18.0606 29.6707 18.1393 29.692 18.2513 29.692H18.5193V30H18.1913C17.9886 30 17.8366 29.9533 17.7353 29.86C17.634 29.7667 17.5833 29.6133 17.5833 29.4V28.108H17.2993V27.808H17.5833V27.256H17.9473V27.808H18.5193V28.108H17.9473ZM19.8523 28.108H19.3923V30H19.0283V28.108H18.7443V27.808H19.0283V27.652C19.0283 27.4067 19.091 27.228 19.2163 27.116C19.3443 27.0013 19.5483 26.944 19.8283 26.944V27.248C19.6683 27.248 19.555 27.28 19.4883 27.344C19.4243 27.4053 19.3923 27.508 19.3923 27.652V27.808H19.8523V28.108ZM21.2328 30.036C21.0274 30.036 20.8408 29.9893 20.6728 29.896C20.5074 29.8027 20.3768 29.6707 20.2808 29.5C20.1874 29.3267 20.1408 29.1267 20.1408 28.9C20.1408 28.676 20.1888 28.4787 20.2848 28.308C20.3834 28.1347 20.5168 28.0027 20.6848 27.912C20.8528 27.8187 21.0408 27.772 21.2488 27.772C21.4568 27.772 21.6448 27.8187 21.8128 27.912C21.9808 28.0027 22.1128 28.1333 22.2088 28.304C22.3074 28.4747 22.3568 28.6733 22.3568 28.9C22.3568 29.1267 22.3061 29.3267 22.2048 29.5C22.1061 29.6707 21.9714 29.8027 21.8008 29.896C21.6301 29.9893 21.4408 30.036 21.2328 30.036ZM21.2328 29.716C21.3634 29.716 21.4861 29.6853 21.6008 29.624C21.7154 29.5627 21.8074 29.4707 21.8768 29.348C21.9488 29.2253 21.9848 29.076 21.9848 28.9C21.9848 28.724 21.9501 28.5747 21.8808 28.452C21.8114 28.3293 21.7208 28.2387 21.6088 28.18C21.4968 28.1187 21.3754 28.088 21.2448 28.088C21.1114 28.088 20.9888 28.1187 20.8768 28.18C20.7674 28.2387 20.6794 28.3293 20.6128 28.452C20.5461 28.5747 20.5128 28.724 20.5128 28.9C20.5128 29.0787 20.5448 29.2293 20.6088 29.352C20.6754 29.4747 20.7634 29.5667 20.8728 29.628C20.9821 29.6867 21.1021 29.716 21.2328 29.716ZM23.1993 27.04V30H22.8353V27.04H23.1993ZM24.0077 27.452C23.9384 27.452 23.8797 27.428 23.8317 27.38C23.7837 27.332 23.7597 27.2733 23.7597 27.204C23.7597 27.1347 23.7837 27.076 23.8317 27.028C23.8797 26.98 23.9384 26.956 24.0077 26.956C24.0744 26.956 24.1304 26.98 24.1757 27.028C24.2237 27.076 24.2477 27.1347 24.2477 27.204C24.2477 27.2733 24.2237 27.332 24.1757 27.38C24.1304 27.428 24.0744 27.452 24.0077 27.452ZM24.1837 27.808V30H23.8197V27.808H24.1837ZM25.7601 30.036C25.5548 30.036 25.3681 29.9893 25.2001 29.896C25.0348 29.8027 24.9041 29.6707 24.8081 29.5C24.7148 29.3267 24.6681 29.1267 24.6681 28.9C24.6681 28.676 24.7161 28.4787 24.8121 28.308C24.9108 28.1347 25.0441 28.0027 25.2121 27.912C25.3801 27.8187 25.5681 27.772 25.7761 27.772C25.9841 27.772 26.1721 27.8187 26.3401 27.912C26.5081 28.0027 26.6401 28.1333 26.7361 28.304C26.8348 28.4747 26.8841 28.6733 26.8841 28.9C26.8841 29.1267 26.8334 29.3267 26.7321 29.5C26.6334 29.6707 26.4988 29.8027 26.3281 29.896C26.1574 29.9893 25.9681 30.036 25.7601 30.036ZM25.7601 29.716C25.8908 29.716 26.0134 29.6853 26.1281 29.624C26.2428 29.5627 26.3348 29.4707 26.4041 29.348C26.4761 29.2253 26.5121 29.076 26.5121 28.9C26.5121 28.724 26.4774 28.5747 26.4081 28.452C26.3388 28.3293 26.2481 28.2387 26.1361 28.18C26.0241 28.1187 25.9028 28.088 25.7721 28.088C25.6388 28.088 25.5161 28.1187 25.4041 28.18C25.2948 28.2387 25.2068 28.3293 25.1401 28.452C25.0734 28.5747 25.0401 28.724 25.0401 28.9C25.0401 29.0787 25.0721 29.2293 25.1361 29.352C25.2028 29.4747 25.2908 29.5667 25.4001 29.628C25.5094 29.6867 25.6294 29.716 25.7601 29.716Z" fill="white"/>
</svg>
