<svg width="32" height="32" viewBox="0 0 32 32" fill="none" xmlns="http://www.w3.org/2000/svg">
<rect width="32" height="32" rx="10" fill="#4C5D5B" fill-opacity="0.9"/>
<path d="M9.42743 8C9.42114 8 9.416 8.00331 9.40971 8.00331C9.03445 8.00852 8.67634 8.15594 8.41262 8.41376C8.14891 8.67158 8.00071 9.01916 8 9.38152C8 9.45468 8.0301 9.52485 8.08368 9.57658C8.13727 9.62832 8.20994 9.65738 8.28571 9.65738H10.2846V22.6207C10.2846 23.3815 10.9257 24 11.7131 24H22.5714C22.9158 23.9992 23.2483 23.878 23.5074 23.659C23.7665 23.4399 23.9348 23.1378 23.9811 22.8083C23.9932 22.7784 23.9996 22.7466 24 22.7145V21.5194C24 21.4463 23.9699 21.3761 23.9163 21.3244C23.8627 21.2726 23.7901 21.2436 23.7143 21.2436H22.2846V9.93103C22.2846 8.86621 21.3874 8 20.2846 8H9.42743ZM10.5623 8.55172H20.2846C21.072 8.55172 21.7131 9.17021 21.7131 9.93103V21.2436H12.8571C12.7814 21.2436 12.7087 21.2726 12.6551 21.3244C12.6015 21.3761 12.5714 21.4463 12.5714 21.5194V22.6207C12.5714 23.077 12.1869 23.4483 11.7143 23.4483C11.2417 23.4483 10.8571 23.077 10.8571 22.6207L10.856 22.6141V9.38814L10.8571 9.38152C10.8571 9.06924 10.7446 8.78345 10.5623 8.55172ZM9.42857 8.55393C9.80114 8.55393 10.1183 8.78455 10.2366 9.10566H8.62057C8.73886 8.78455 9.056 8.55393 9.42857 8.55393ZM13.1429 21.7953H23.4286V22.6207C23.4286 23.077 23.044 23.4483 22.5714 23.4483H12.8491C13.0309 23.2171 13.1429 22.9324 13.1429 22.6207V21.7953Z" fill="white"/>
<path d="M9.208 27.326C9.336 27.326 9.45 27.353 9.55 27.407C9.65 27.459 9.729 27.538 9.787 27.644C9.845 27.75 9.874 27.879 9.874 28.031V29H9.604V28.07C9.604 27.906 9.563 27.781 9.481 27.695C9.401 27.607 9.292 27.563 9.154 27.563C9.012 27.563 8.899 27.609 8.815 27.701C8.731 27.791 8.689 27.922 8.689 28.094V29H8.419V28.07C8.419 27.906 8.378 27.781 8.296 27.695C8.216 27.607 8.107 27.563 7.969 27.563C7.827 27.563 7.714 27.609 7.63 27.701C7.546 27.791 7.504 27.922 7.504 28.094V29H7.231V27.356H7.504V27.593C7.558 27.507 7.63 27.441 7.72 27.395C7.812 27.349 7.913 27.326 8.023 27.326C8.161 27.326 8.283 27.357 8.389 27.419C8.495 27.481 8.574 27.572 8.626 27.692C8.672 27.576 8.748 27.486 8.854 27.422C8.96 27.358 9.078 27.326 9.208 27.326ZM11.7378 27.356L10.7478 29.774H10.4658L10.7898 28.982L10.1268 27.356H10.4298L10.9458 28.688L11.4558 27.356H11.7378ZM13.0851 27.659C13.1391 27.565 13.2191 27.487 13.3251 27.425C13.4331 27.361 13.5581 27.329 13.7001 27.329C13.8461 27.329 13.9781 27.364 14.0961 27.434C14.2161 27.504 14.3101 27.603 14.3781 27.731C14.4461 27.857 14.4801 28.004 14.4801 28.172C14.4801 28.338 14.4461 28.486 14.3781 28.616C14.3101 28.746 14.2161 28.847 14.0961 28.919C13.9781 28.991 13.8461 29.027 13.7001 29.027C13.5601 29.027 13.4361 28.996 13.3281 28.934C13.2221 28.87 13.1411 28.791 13.0851 28.697V29.78H12.8121V27.356H13.0851V27.659ZM14.2011 28.172C14.2011 28.048 14.1761 27.94 14.1261 27.848C14.0761 27.756 14.0081 27.686 13.9221 27.638C13.8381 27.59 13.7451 27.566 13.6431 27.566C13.5431 27.566 13.4501 27.591 13.3641 27.641C13.2801 27.689 13.2121 27.76 13.1601 27.854C13.1101 27.946 13.0851 28.053 13.0851 28.175C13.0851 28.299 13.1101 28.408 13.1601 28.502C13.2121 28.594 13.2801 28.665 13.3641 28.715C13.4501 28.763 13.5431 28.787 13.6431 28.787C13.7451 28.787 13.8381 28.763 13.9221 28.715C14.0081 28.665 14.0761 28.594 14.1261 28.502C14.1761 28.408 14.2011 28.298 14.2011 28.172ZM15.5564 29.027C15.4024 29.027 15.2624 28.992 15.1364 28.922C15.0124 28.852 14.9144 28.753 14.8424 28.625C14.7724 28.495 14.7374 28.345 14.7374 28.175C14.7374 28.007 14.7734 27.859 14.8454 27.731C14.9194 27.601 15.0194 27.502 15.1454 27.434C15.2714 27.364 15.4124 27.329 15.5684 27.329C15.7244 27.329 15.8654 27.364 15.9914 27.434C16.1174 27.502 16.2164 27.6 16.2884 27.728C16.3624 27.856 16.3994 28.005 16.3994 28.175C16.3994 28.345 16.3614 28.495 16.2854 28.625C16.2114 28.753 16.1104 28.852 15.9824 28.922C15.8544 28.992 15.7124 29.027 15.5564 29.027ZM15.5564 28.787C15.6544 28.787 15.7464 28.764 15.8324 28.718C15.9184 28.672 15.9874 28.603 16.0394 28.511C16.0934 28.419 16.1204 28.307 16.1204 28.175C16.1204 28.043 16.0944 27.931 16.0424 27.839C15.9904 27.747 15.9224 27.679 15.8384 27.635C15.7544 27.589 15.6634 27.566 15.5654 27.566C15.4654 27.566 15.3734 27.589 15.2894 27.635C15.2074 27.679 15.1414 27.747 15.0914 27.839C15.0414 27.931 15.0164 28.043 15.0164 28.175C15.0164 28.309 15.0404 28.422 15.0884 28.514C15.1384 28.606 15.2044 28.675 15.2864 28.721C15.3684 28.765 15.4584 28.787 15.5564 28.787ZM17.0313 27.623C17.0793 27.529 17.1473 27.456 17.2353 27.404C17.3253 27.352 17.4343 27.326 17.5623 27.326V27.608H17.4903C17.1843 27.608 17.0313 27.774 17.0313 28.106V29H16.7583V27.356H17.0313V27.623ZM18.2105 27.581V28.55C18.2105 28.63 18.2275 28.687 18.2615 28.721C18.2955 28.753 18.3545 28.769 18.4385 28.769H18.6395V29H18.3935C18.2415 29 18.1275 28.965 18.0515 28.895C17.9755 28.825 17.9375 28.71 17.9375 28.55V27.581H17.7245V27.356H17.9375V26.942H18.2105V27.356H18.6395V27.581H18.2105ZM19.6393 27.581H19.2943V29H19.0213V27.581H18.8083V27.356H19.0213V27.239C19.0213 27.055 19.0683 26.921 19.1623 26.837C19.2583 26.751 19.4113 26.708 19.6213 26.708V26.936C19.5013 26.936 19.4163 26.96 19.3663 27.008C19.3183 27.054 19.2943 27.131 19.2943 27.239V27.356H19.6393V27.581ZM20.6746 29.027C20.5206 29.027 20.3806 28.992 20.2546 28.922C20.1306 28.852 20.0326 28.753 19.9606 28.625C19.8906 28.495 19.8556 28.345 19.8556 28.175C19.8556 28.007 19.8916 27.859 19.9636 27.731C20.0376 27.601 20.1376 27.502 20.2636 27.434C20.3896 27.364 20.5306 27.329 20.6866 27.329C20.8426 27.329 20.9836 27.364 21.1096 27.434C21.2356 27.502 21.3346 27.6 21.4066 27.728C21.4806 27.856 21.5176 28.005 21.5176 28.175C21.5176 28.345 21.4796 28.495 21.4036 28.625C21.3296 28.753 21.2286 28.852 21.1006 28.922C20.9726 28.992 20.8306 29.027 20.6746 29.027ZM20.6746 28.787C20.7726 28.787 20.8646 28.764 20.9506 28.718C21.0366 28.672 21.1056 28.603 21.1576 28.511C21.2116 28.419 21.2386 28.307 21.2386 28.175C21.2386 28.043 21.2126 27.931 21.1606 27.839C21.1086 27.747 21.0406 27.679 20.9566 27.635C20.8726 27.589 20.7816 27.566 20.6836 27.566C20.5836 27.566 20.4916 27.589 20.4076 27.635C20.3256 27.679 20.2596 27.747 20.2096 27.839C20.1596 27.931 20.1346 28.043 20.1346 28.175C20.1346 28.309 20.1586 28.422 20.2066 28.514C20.2566 28.606 20.3226 28.675 20.4046 28.721C20.4866 28.765 20.5766 28.787 20.6746 28.787ZM22.1495 26.78V29H21.8765V26.78H22.1495ZM22.7558 27.089C22.7038 27.089 22.6598 27.071 22.6238 27.035C22.5878 26.999 22.5698 26.955 22.5698 26.903C22.5698 26.851 22.5878 26.807 22.6238 26.771C22.6598 26.735 22.7038 26.717 22.7558 26.717C22.8058 26.717 22.8478 26.735 22.8818 26.771C22.9178 26.807 22.9358 26.851 22.9358 26.903C22.9358 26.955 22.9178 26.999 22.8818 27.035C22.8478 27.071 22.8058 27.089 22.7558 27.089ZM22.8878 27.356V29H22.6148V27.356H22.8878ZM24.0701 29.027C23.9161 29.027 23.7761 28.992 23.6501 28.922C23.5261 28.852 23.4281 28.753 23.3561 28.625C23.2861 28.495 23.2511 28.345 23.2511 28.175C23.2511 28.007 23.2871 27.859 23.3591 27.731C23.4331 27.601 23.5331 27.502 23.6591 27.434C23.7851 27.364 23.9261 27.329 24.0821 27.329C24.2381 27.329 24.3791 27.364 24.5051 27.434C24.6311 27.502 24.7301 27.6 24.8021 27.728C24.8761 27.856 24.9131 28.005 24.9131 28.175C24.9131 28.345 24.8751 28.495 24.7991 28.625C24.7251 28.753 24.6241 28.852 24.4961 28.922C24.3681 28.992 24.2261 29.027 24.0701 29.027ZM24.0701 28.787C24.1681 28.787 24.2601 28.764 24.3461 28.718C24.4321 28.672 24.5011 28.603 24.5531 28.511C24.6071 28.419 24.6341 28.307 24.6341 28.175C24.6341 28.043 24.6081 27.931 24.5561 27.839C24.5041 27.747 24.4361 27.679 24.3521 27.635C24.2681 27.589 24.1771 27.566 24.0791 27.566C23.9791 27.566 23.8871 27.589 23.8031 27.635C23.7211 27.679 23.6551 27.747 23.6051 27.839C23.5551 27.931 23.5301 28.043 23.5301 28.175C23.5301 28.309 23.5541 28.422 23.6021 28.514C23.6521 28.606 23.7181 28.675 23.8001 28.721C23.8821 28.765 23.9721 28.787 24.0701 28.787Z" fill="white"/>
</svg>
